<svg data-v-0dd9719b="" version="1.0" xmlns="http://www.w3.org/2000/svg" xmlns:xlink="http://www.w3.org/1999/xlink" width="100%" height="100%" viewBox="0 0 340.000000 250.000000" preserveAspectRatio="xMidYMid meet" color-interpolation-filters="sRGB" style="margin: auto;"> <rect data-v-0dd9719b="" x="0" y="0" width="100%" height="100%" fill="#feffff" fill-opacity="1" class="background"></rect> <!----> <g data-v-0dd9719b="" fill="#333" class="iconlinesvg-g iconlinesvg" transform="translate(74.48638916015625,90.41075897216797)"><g class="tp-name"><g transform="translate(0, 0)"><g><g class="imagesvg"><g><rect fill="#333" fill-opacity="0" stroke-width="2" x="0" y="0" width="69.17848236551477" height="69.17848236551477" class="image-rect"></rect> <svg x="0" y="0" width="69.17848236551477" height="69.17848236551477" filtersec="colorsb1398538596" class="image-svg-svg primary" style="overflow: visible;"><svg xmlns="http://www.w3.org/2000/svg" viewBox="0 0 100 100"><title>资源 35</title><path d="M97.07 82.93l-40-40A10 10 0 0 0 50 40a10 10 0 0 0-10 10 10 10 0 0 0 2.93 7.07l40 40A10 10 0 0 0 90 100a10 10 0 0 0 10-10 10 10 0 0 0-2.93-7.07z" fill="#7e5bf6"></path><path d="M0 50a50 50 0 0 0 50 50 10 10 0 0 0 10-10 10 10 0 0 0-10-10 30 30 0 0 1-30-30 30 30 0 0 1 30-30 30 30 0 0 1 30 30 10 10 0 0 0 10 10 10 10 0 0 0 10-10A50 50 0 0 0 50 0 50 50 0 0 0 0 50z" fill="#009dda"></path></svg></svg> <!----></g></g></g></g><g transform="translate(73, 5.76487353045956)"><g data-gra="path-name" fill="#333" transform="scale(1)"><path d="M39.95-6.22Q41.23-5.00 41.23-3.46L41.23-3.46Q41.23-1.99 40.11-0.87Q38.99 0.26 37.45 0.26L37.45 0.26Q35.85 0.26 34.50-1.09L34.50-1.09L13.15-21.10L13.15-3.78Q13.15-1.92 12.02-0.77Q10.90 0.38 8.98 0.38L8.98 0.38Q7.12 0.38 6.00-0.77Q4.87-1.92 4.87-3.78L4.87-3.78L4.87-41.43Q4.87-43.28 6.00-44.41Q7.12-45.53 8.98-45.53L8.98-45.53Q10.90-45.53 12.02-44.41Q13.15-43.28 13.15-41.43L13.15-41.43L13.15-24.94L33.79-44.31Q34.95-45.46 36.42-45.46L36.42-45.46Q37.90-45.46 39.02-44.34Q40.14-43.22 40.14-41.75L40.14-41.75Q40.14-40.27 38.86-39.05L38.86-39.05L21.61-23.28L39.95-6.22Z" transform="translate(-4.873530459565373, 45.785536159600994)"></path></g></g><g transform="translate(113, 5.76487353045956)"><g data-gra="path-name" fill="#333" transform="scale(1)"><path d="M8.85 0Q6.99 0 5.93-1.03Q4.87-2.05 4.87-3.91L4.87-3.91L4.87-41.30Q4.87-43.16 5.93-44.18Q6.99-45.21 8.85-45.21L8.85-45.21L32.00-45.21Q33.86-45.21 34.88-44.37Q35.91-43.54 35.91-42.00L35.91-42.00Q35.91-40.40 34.88-39.53Q33.86-38.67 32.00-38.67L32.00-38.67L12.95-38.67L12.95-26.23L30.72-26.23Q32.58-26.23 33.60-25.39Q34.63-24.56 34.63-22.96L34.63-22.96Q34.63-21.42 33.60-20.58Q32.58-19.75 30.72-19.75L30.72-19.75L12.95-19.75L12.95-6.54L32.00-6.54Q33.86-6.54 34.88-5.68Q35.91-4.81 35.91-3.21L35.91-3.21Q35.91-1.67 34.88-0.83Q33.86 0 32.00 0L32.00 0L8.85 0Z" transform="translate(-4.873530459565373, 45.785536159600994)"></path></g></g><g transform="translate(148, 5.76487353045956)"><g data-gra="path-name" fill="#333" transform="scale(1)"><path d="M39.63 2.69L41.87 6.28Q42.58 7.44 42.58 8.53L42.58 8.53Q42.58 10.00 41.43 10.93Q40.27 11.86 38.73 11.86L38.73 11.86Q37.58 11.86 36.55 11.32Q35.53 10.77 34.88 9.68L34.88 9.68L31.10 3.46Q30.20 1.99 28.76 1.28Q27.32 0.58 25.01 0.58L25.01 0.58Q18.40 0.58 13.56-2.24Q8.72-5.07 6.09-10.32Q3.46-15.58 3.46-22.64L3.46-22.64Q3.46-29.69 6.09-34.92Q8.72-40.14 13.56-42.96Q18.40-45.79 25.01-45.79L25.01-45.79Q31.55-45.79 36.39-42.96Q41.23-40.14 43.86-34.92Q46.49-29.69 46.49-22.64L46.49-22.64Q46.49-15.01 43.44-9.52Q40.40-4.04 34.76-1.54L34.76-1.54Q37.71-0.51 39.63 2.69L39.63 2.69ZM25.01-6.03Q31.23-6.03 34.72-10.32Q38.22-14.62 38.22-22.64L38.22-22.64Q38.22-30.65 34.72-34.92Q31.23-39.18 25.01-39.18L25.01-39.18Q18.72-39.18 15.23-34.92Q11.73-30.65 11.73-22.64L11.73-22.64Q11.73-14.62 15.23-10.32Q18.72-6.03 25.01-6.03L25.01-6.03Z" transform="translate(-3.4627716423227644, 45.785536159600994)"></path></g></g></g> <!----></g><defs v-gra="od"></defs></svg>